<mxfile host="drawio-plugin" modified="2023-12-30T19:35:50.464Z" agent="5.0 (X11; Linux x86_64) AppleWebKit/537.36 (KHTML, like Gecko) Chrome/111.0.0.0 Safari/537.36" etag="IsSVQXs5HIm1gN8D3dmk" version="20.5.3" type="embed"><diagram name="Page-1" id="5Y11S9Xwyo96vZCyZT3V"><mxGraphModel dx="984" dy="760" grid="1" gridSize="10" guides="1" tooltips="1" connect="1" arrows="1" fold="1" page="1" pageScale="1" pageWidth="850" pageHeight="1100" math="0" shadow="0"><root><mxCell id="0"/><mxCell id="1" parent="0"/><mxCell id="lB84_F_d-40E52OUlX02-83" value="" style="rounded=0;whiteSpace=wrap;html=1;fillColor=none;" parent="1" vertex="1"><mxGeometry x="70" y="20" width="780" height="500" as="geometry"/></mxCell><mxCell id="lB84_F_d-40E52OUlX02-62" value="Client" style="shape=umlLifeline;perimeter=lifelinePerimeter;whiteSpace=wrap;html=1;container=1;dropTarget=0;collapsible=0;recursiveResize=0;outlineConnect=0;portConstraint=eastwest;newEdgeStyle={&quot;edgeStyle&quot;:&quot;elbowEdgeStyle&quot;,&quot;elbow&quot;:&quot;vertical&quot;,&quot;curved&quot;:0,&quot;rounded&quot;:0};" parent="1" vertex="1"><mxGeometry x="200" y="90" width="100" height="410" as="geometry"/></mxCell><mxCell id="lB84_F_d-40E52OUlX02-63" value="Server" style="shape=umlLifeline;perimeter=lifelinePerimeter;whiteSpace=wrap;html=1;container=1;dropTarget=0;collapsible=0;recursiveResize=0;outlineConnect=0;portConstraint=eastwest;newEdgeStyle={&quot;edgeStyle&quot;:&quot;elbowEdgeStyle&quot;,&quot;elbow&quot;:&quot;vertical&quot;,&quot;curved&quot;:0,&quot;rounded&quot;:0};" parent="1" vertex="1"><mxGeometry x="600" y="90" width="100" height="410" as="geometry"/></mxCell><mxCell id="lB84_F_d-40E52OUlX02-71" value="" style="html=1;points=[[0,0,0,0,5],[0,1,0,0,-5],[1,0,0,0,5],[1,1,0,0,-5]];perimeter=orthogonalPerimeter;outlineConnect=0;targetShapes=umlLifeline;portConstraint=eastwest;newEdgeStyle={&quot;curved&quot;:0,&quot;rounded&quot;:0};" parent="lB84_F_d-40E52OUlX02-63" vertex="1"><mxGeometry x="45" y="140" width="10" height="150" as="geometry"/></mxCell><mxCell id="lB84_F_d-40E52OUlX02-66" value="Initiates connection" style="html=1;verticalAlign=bottom;startArrow=oval;startFill=1;endArrow=block;startSize=8;curved=0;rounded=0;" parent="1" edge="1"><mxGeometry y="61" width="60" relative="1" as="geometry"><mxPoint x="246.10000000000002" y="170" as="sourcePoint"/><mxPoint x="246.10000000000002" y="170" as="targetPoint"/><mxPoint x="-60" y="-10" as="offset"/></mxGeometry></mxCell><mxCell id="lB84_F_d-40E52OUlX02-67" value="" style="html=1;verticalAlign=bottom;startArrow=oval;startFill=1;endArrow=block;startSize=8;curved=0;rounded=0;" parent="1" target="lB84_F_d-40E52OUlX02-65" edge="1"><mxGeometry width="60" relative="1" as="geometry"><mxPoint x="130" y="160" as="sourcePoint"/><mxPoint x="249" y="160" as="targetPoint"/></mxGeometry></mxCell><mxCell id="lB84_F_d-40E52OUlX02-65" value="" style="html=1;points=[[0,0,0,0,5],[0,1,0,0,-5],[1,0,0,0,5],[1,1,0,0,-5]];perimeter=orthogonalPerimeter;outlineConnect=0;targetShapes=umlLifeline;portConstraint=eastwest;newEdgeStyle={&quot;curved&quot;:0,&quot;rounded&quot;:0};" parent="1" vertex="1"><mxGeometry x="245" y="150" width="10" height="340" as="geometry"/></mxCell><mxCell id="lB84_F_d-40E52OUlX02-68" value="" style="endArrow=classic;html=1;rounded=0;" parent="1" target="lB84_F_d-40E52OUlX02-65" edge="1"><mxGeometry width="50" height="50" relative="1" as="geometry"><mxPoint x="255" y="164" as="sourcePoint"/><mxPoint x="255" y="180" as="targetPoint"/><Array as="points"><mxPoint x="280" y="164"/><mxPoint x="280" y="180"/><mxPoint x="280" y="210"/></Array></mxGeometry></mxCell><mxCell id="lB84_F_d-40E52OUlX02-69" value="Processes&lt;br&gt;Master Password Hash" style="edgeLabel;html=1;align=center;verticalAlign=middle;resizable=0;points=[];" parent="lB84_F_d-40E52OUlX02-68" vertex="1" connectable="0"><mxGeometry x="-0.0183" y="1" relative="1" as="geometry"><mxPoint x="59" y="-1" as="offset"/></mxGeometry></mxCell><mxCell id="lB84_F_d-40E52OUlX02-70" value="" style="endArrow=classic;html=1;rounded=0;entryX=0;entryY=0;entryDx=0;entryDy=5;entryPerimeter=0;" parent="1" target="lB84_F_d-40E52OUlX02-71" edge="1"><mxGeometry width="50" height="50" relative="1" as="geometry"><mxPoint x="255" y="235" as="sourcePoint"/><mxPoint x="640" y="235" as="targetPoint"/></mxGeometry></mxCell><mxCell id="lB84_F_d-40E52OUlX02-78" value="Send Username and Master Password Hash" style="edgeLabel;html=1;align=center;verticalAlign=middle;resizable=0;points=[];" parent="lB84_F_d-40E52OUlX02-70" vertex="1" connectable="0"><mxGeometry x="-0.2077" relative="1" as="geometry"><mxPoint x="41" y="-9" as="offset"/></mxGeometry></mxCell><mxCell id="lB84_F_d-40E52OUlX02-72" value="" style="endArrow=classic;html=1;rounded=0;" parent="1" edge="1"><mxGeometry width="50" height="50" relative="1" as="geometry"><mxPoint x="655" y="242" as="sourcePoint"/><mxPoint x="655" y="288" as="targetPoint"/><Array as="points"><mxPoint x="680" y="242"/><mxPoint x="680" y="258"/><mxPoint x="680" y="288"/></Array></mxGeometry></mxCell><mxCell id="lB84_F_d-40E52OUlX02-73" value="Master Password Hash&lt;br&gt;Server hashing" style="edgeLabel;html=1;align=center;verticalAlign=middle;resizable=0;points=[];" parent="lB84_F_d-40E52OUlX02-72" vertex="1" connectable="0"><mxGeometry x="-0.0183" y="1" relative="1" as="geometry"><mxPoint x="59" y="-1" as="offset"/></mxGeometry></mxCell><mxCell id="lB84_F_d-40E52OUlX02-74" value="" style="endArrow=classic;html=1;rounded=0;" parent="1" edge="1"><mxGeometry width="50" height="50" relative="1" as="geometry"><mxPoint x="655" y="304" as="sourcePoint"/><mxPoint x="655" y="350" as="targetPoint"/><Array as="points"><mxPoint x="680" y="304"/><mxPoint x="680" y="320"/><mxPoint x="680" y="350"/></Array></mxGeometry></mxCell><mxCell id="lB84_F_d-40E52OUlX02-75" value="Check if Master Password Hash&lt;br&gt;matches the one in DB&lt;sub&gt;&lt;br&gt;&lt;/sub&gt;" style="edgeLabel;html=1;align=center;verticalAlign=middle;resizable=0;points=[];" parent="lB84_F_d-40E52OUlX02-74" vertex="1" connectable="0"><mxGeometry x="-0.0183" y="1" relative="1" as="geometry"><mxPoint x="82" y="-1" as="offset"/></mxGeometry></mxCell><mxCell id="lB84_F_d-40E52OUlX02-76" value="" style="endArrow=none;html=1;rounded=0;entryX=0;entryY=0;entryDx=0;entryDy=5;entryPerimeter=0;startArrow=classic;startFill=1;endFill=0;" parent="1" edge="1"><mxGeometry width="50" height="50" relative="1" as="geometry"><mxPoint x="255" y="360" as="sourcePoint"/><mxPoint x="645" y="360" as="targetPoint"/></mxGeometry></mxCell><mxCell id="lB84_F_d-40E52OUlX02-77" value="Login successful&lt;br&gt;Send user's metadata (protected private key and symmetric key)&lt;br&gt;&lt;font style=&quot;font-size: 11px;&quot;&gt;Send root folder's metadata (files and folders name and shares)&lt;br&gt;&lt;/font&gt;" style="edgeLabel;html=1;align=center;verticalAlign=middle;resizable=0;points=[];" parent="lB84_F_d-40E52OUlX02-76" vertex="1" connectable="0"><mxGeometry x="-0.2006" relative="1" as="geometry"><mxPoint x="45" y="-28" as="offset"/></mxGeometry></mxCell><mxCell id="lB84_F_d-40E52OUlX02-79" value="User" style="shape=umlActor;verticalLabelPosition=bottom;verticalAlign=top;html=1;" parent="1" vertex="1"><mxGeometry x="84" y="130" width="30" height="60" as="geometry"/></mxCell><mxCell id="lB84_F_d-40E52OUlX02-80" value="" style="endArrow=classic;html=1;rounded=0;" parent="1" edge="1"><mxGeometry width="50" height="50" relative="1" as="geometry"><mxPoint x="255" y="380" as="sourcePoint"/><mxPoint x="255" y="426" as="targetPoint"/><Array as="points"><mxPoint x="280" y="380"/><mxPoint x="280" y="396"/><mxPoint x="280" y="426"/></Array></mxGeometry></mxCell><mxCell id="lB84_F_d-40E52OUlX02-81" value="Decrypts&lt;br&gt;Protected Symmetric&lt;br&gt;Key" style="edgeLabel;html=1;align=center;verticalAlign=middle;resizable=0;points=[];" parent="lB84_F_d-40E52OUlX02-80" vertex="1" connectable="0"><mxGeometry x="-0.0183" y="1" relative="1" as="geometry"><mxPoint x="53" y="1" as="offset"/></mxGeometry></mxCell><mxCell id="lB84_F_d-40E52OUlX02-84" value="&lt;font style=&quot;font-size: 20px;&quot;&gt;&lt;b&gt;Login&lt;/b&gt;&lt;/font&gt;" style="text;html=1;strokeColor=none;fillColor=none;align=center;verticalAlign=middle;whiteSpace=wrap;rounded=0;" parent="1" vertex="1"><mxGeometry x="80" y="30" width="60" height="30" as="geometry"/></mxCell><mxCell id="xz6vYIvAxhGZ4rRrG9xZ-1" value="" style="endArrow=classic;html=1;rounded=0;" parent="1" edge="1"><mxGeometry width="50" height="50" relative="1" as="geometry"><mxPoint x="255" y="438" as="sourcePoint"/><mxPoint x="255" y="484" as="targetPoint"/><Array as="points"><mxPoint x="280" y="438"/><mxPoint x="280" y="454"/><mxPoint x="280" y="484"/></Array></mxGeometry></mxCell><mxCell id="xz6vYIvAxhGZ4rRrG9xZ-2" value="Set session&lt;br&gt;variables" style="edgeLabel;html=1;align=center;verticalAlign=middle;resizable=0;points=[];" parent="xz6vYIvAxhGZ4rRrG9xZ-1" vertex="1" connectable="0"><mxGeometry x="-0.0183" y="1" relative="1" as="geometry"><mxPoint x="43" y="1" as="offset"/></mxGeometry></mxCell></root></mxGraphModel></diagram></mxfile>